<svg preserveAspectRatio="none" overflow="visible" style="display: block;" width="21.2308" height="21.2308" viewBox="0 0 21.2308 21.2308" fill="none" xmlns="http://www.w3.org/2000/svg">
<g id="Frame">
<path id="Vector" d="M10.6124 14.8614C12.9575 14.8614 14.8586 12.9603 14.8586 10.6152C14.8586 8.27013 12.9575 6.36906 10.6124 6.36906C8.26734 6.36906 6.36627 8.27013 6.36627 10.6152C6.36627 12.9603 8.26734 14.8614 10.6124 14.8614Z" fill="#FFC107" stroke="#40504A" stroke-width="1.06154"/>
<g id="Vector_2">
<path d="M10.613 1.06191V3.18498ZM10.613 18.0465V20.1696ZM1.05912 10.6158H3.18219ZM18.0437 10.6158H20.1668ZM3.81912 3.82191L5.30527 5.30806ZM15.9207 15.9234L17.4068 17.4096ZM3.81912 17.4096L5.30527 15.9234ZM15.9207 5.30806L17.4068 3.82191Z" fill="black"/>
<path d="M10.613 1.06191V3.18498M10.613 18.0465V20.1696M1.05912 10.6158H3.18219M18.0437 10.6158H20.1668M3.81912 3.82191L5.30527 5.30806M15.9207 15.9234L17.4068 17.4096M3.81912 17.4096L5.30527 15.9234M15.9207 5.30806L17.4068 3.82191" stroke="#40504A" stroke-width="1.27385" stroke-linecap="round"/>
</g>
</g>
</svg>
