<svg preserveAspectRatio="none" overflow="visible" style="display: block;" width="125" height="141" viewBox="0 0 125 141" fill="none" xmlns="http://www.w3.org/2000/svg">
<g id="Decorative carrot outline / non-evidence" opacity="0.07">
<path id="Vector" d="M43.75 61.1L55.4688 68.9333M33.5938 84.6L42.1875 91.65M54.6875 86.95L64.8438 94M64.8438 41.5167C52.3438 22.1944 49.7396 10.7056 57.0312 7.05C69.5312 16.9722 74.2188 27.6778 71.0938 39.1667M71.875 40.7333C75 16.7111 81.25 6.52778 90.625 10.1833C92.1875 23.2389 88.2812 34.7278 78.9062 44.65M79.6875 47C95.3125 28.7222 106.25 23.7611 112.5 32.1167C107.812 43.0833 98.9583 50.3944 85.9375 54.05M50 46.2167C60.9375 37.8611 71.6146 41.2556 82.0312 56.4C67.9688 80.4222 46.875 104.183 18.75 127.683C23.4375 95.3056 33.8542 68.15 50 46.2167Z" stroke="#40504A" stroke-width="1.7" stroke-linecap="round"/>
</g>
</svg>
