<svg preserveAspectRatio="none" overflow="visible" style="display: block;" width="40" height="40" viewBox="0 0 40 40" fill="none" xmlns="http://www.w3.org/2000/svg">
<g id="Image placeholder / not identity evidence" opacity="0.35">
<path id="Vector" d="M33 5H7C4.79086 5 3 6.79086 3 9V31C3 33.2091 4.79086 35 7 35H33C35.2091 35 37 33.2091 37 31V9C37 6.79086 35.2091 5 33 5Z" stroke="#40504A" stroke-width="1.5"/>
<path id="Vector_2" d="M13 17C14.6569 17 16 15.6569 16 14C16 12.3431 14.6569 11 13 11C11.3431 11 10 12.3431 10 14C10 15.6569 11.3431 17 13 17Z" stroke="#40504A" stroke-width="1.5"/>
<path id="Vector_3" d="M4 30L16 21L23 27L29 19L36 28" stroke="#40504A" stroke-width="1.5"/>
</g>
</svg>
